<?xml version="1.0" encoding="UTF-8" standalone="no"?>
<!-- Created with Inkscape (http://www.inkscape.org/) -->

<svg
   xmlns:dc="http://purl.org/dc/elements/1.1/"
   xmlns:cc="http://creativecommons.org/ns#"
   xmlns:rdf="http://www.w3.org/1999/02/22-rdf-syntax-ns#"
   xmlns:svg="http://www.w3.org/2000/svg"
   xmlns="http://www.w3.org/2000/svg"
   xmlns:sodipodi="http://sodipodi.sourceforge.net/DTD/sodipodi-0.dtd"
   xmlns:inkscape="http://www.inkscape.org/namespaces/inkscape"
   width="100"
   height="100"
   id="svg2"
   version="1.1"
   inkscape:version="0.48.5 r10040"
   sodipodi:docname="crystal_ball.svg">
  <defs
     id="defs4" />
  <sodipodi:namedview
     id="base"
     pagecolor="#ffffff"
     bordercolor="#666666"
     borderopacity="1.0"
     inkscape:pageopacity="0.0"
     inkscape:pageshadow="2"
     inkscape:zoom="2.8"
     inkscape:cx="48.372578"
     inkscape:cy="59.661413"
     inkscape:document-units="px"
     inkscape:current-layer="layer1"
     showgrid="false"
     inkscape:window-width="1106"
     inkscape:window-height="783"
     inkscape:window-x="66"
     inkscape:window-y="70"
     inkscape:window-maximized="0" />
  <metadata
     id="metadata7">
    <rdf:RDF>
      <cc:Work
         rdf:about="">
        <dc:format>image/svg+xml</dc:format>
        <dc:type
           rdf:resource="http://purl.org/dc/dcmitype/StillImage" />
        <dc:title></dc:title>
      </cc:Work>
    </rdf:RDF>
  </metadata>
  <g
     inkscape:label="Layer 1"
     inkscape:groupmode="layer"
     id="layer1"
     transform="translate(0,-952.36218)">
    <path
       style="fill:#000000;fill-opacity:1;fill-rule:evenodd;stroke:#000000;stroke-width:1.1623652px;stroke-linecap:butt;stroke-linejoin:miter;stroke-opacity:1"
       d="M 48.875 7.9375 C 27.782141 7.9375 10.6875 24.95928 10.6875 45.9375 C 10.6875 55.09729 13.946078 63.5022 19.375 70.0625 L 78.40625 70.0625 C 83.835172 63.5022 87.09375 55.09729 87.09375 45.9375 C 87.09375 24.95928 69.967858 7.9375 48.875 7.9375 z M 60.4375 14.375 C 60.443147 14.374877 61.24021 18.364557 62 22.09375 C 62.024672 21.907948 62.155415 20.9375 62.15625 20.9375 C 62.160028 20.9375 62.519819 23.659096 62.84375 26.15625 C 63.51736 29.464221 64.277595 33.215095 64.28125 33.21875 C 64.286931 33.224431 69.90132 34.403227 75.25 35.53125 C 75.653545 35.584272 77 35.748737 77 35.75 C 77 35.75031 76.618227 35.809051 76.59375 35.8125 C 79.657253 36.458994 83.312393 37.213831 83.3125 37.21875 C 83.312801 37.23254 64.478503 41.083997 64.46875 41.09375 C 64.458894 41.103606 60.451435 60.093446 60.4375 60.09375 C 60.42371 60.094051 56.603503 41.259753 56.59375 41.25 C 56.583894 41.240144 37.594054 37.232685 37.59375 37.21875 C 37.593449 37.20496 56.427747 33.384753 56.4375 33.375 C 56.447356 33.365144 60.423565 14.375304 60.4375 14.375 z "
       transform="translate(0,952.36218)"
       id="path2985" />
    <path
       inkscape:connector-curvature="0"
       style="fill:#000000;fill-opacity:1;fill-rule:evenodd;stroke:#000000;stroke-width:1.1623652px;stroke-linecap:butt;stroke-linejoin:miter;stroke-opacity:1"
       d="m 13.965263,1027.1365 c -1.743798,2.907 -4.8276657,8.0581 -4.8310807,8.0639 -0.00115,0 -0.8722958,1.5218 -1.5619283,2.7243 l 0,3.3418 84.48942,0 0,-3.4144 c -1.277302,-2.3039 -2.613428,-4.6825 -2.615321,-4.6858 -0.0024,0 -2.098276,-3.6362 -3.487096,-6.0298 l -71.993994,0 z"
       id="rect3004" />
  </g>
</svg>
